<svg width="100" height="28" viewBox="0 0 100 28" fill="none" xmlns="http://www.w3.org/2000/svg">
<path d="M100 2.88672L95 5.77347V-3.24249e-05L100 2.88672ZM52 2.88672V2.38672H95.5V2.88672V3.38672H52V2.88672ZM50 4.88672H50.5V24.8867H50H49.5V4.88672H50ZM48 26.8867V27.3867H0V26.8867V26.3867H48V26.8867ZM50 24.8867H50.5C50.5 26.2674 49.3807 27.3867 48 27.3867V26.8867V26.3867C48.8284 26.3867 49.5 25.7151 49.5 24.8867H50ZM52 2.88672V3.38672C51.1716 3.38672 50.5 4.05829 50.5 4.88672H50H49.5C49.5 3.50601 50.6193 2.38672 52 2.38672V2.88672Z" fill="#B6B656"/>
</svg>
