<svg width="40" height="40" viewBox="0 0 40 40" fill="none" xmlns="http://www.w3.org/2000/svg">
<path d="M15 36.6663H25C33.3333 36.6663 36.6667 33.333 36.6667 24.9997V14.9997C36.6667 6.66634 33.3333 3.33301 25 3.33301H15C6.66667 3.33301 3.33334 6.66634 3.33334 14.9997V24.9997C3.33334 33.333 6.66667 36.6663 15 36.6663Z" stroke="white" stroke-width="1.5" stroke-linecap="round" stroke-linejoin="round"/>
<path d="M20 25.8337C23.2217 25.8337 25.8333 23.222 25.8333 20.0003C25.8333 16.7787 23.2217 14.167 20 14.167C16.7783 14.167 14.1667 16.7787 14.1667 20.0003C14.1667 23.222 16.7783 25.8337 20 25.8337Z" stroke="white" stroke-width="1.5" stroke-linecap="round" stroke-linejoin="round"/>
<path d="M29.3935 11.6663H29.4128" stroke="white" stroke-width="2" stroke-linecap="round" stroke-linejoin="round"/>
</svg>
