<svg width="132" height="30" viewBox="0 0 132 30" fill="none" xmlns="http://www.w3.org/2000/svg">
<g clip-path="url(#clip0_38_254)">
<path d="M82.673 17.4148L79.2804 8.74611H76.332L76.4955 9.14549L81.5257 21.3808H83.7524L88.9276 8.74611H86.047L82.6545 17.4148M113.246 16.4551L107.327 8.73992H104.956V21.2724H107.614V13.3127L113.748 21.2724H115.932V8.72135H113.274L113.246 16.4551ZM94.5591 8.65942L89.0633 21.2941H91.8081L94.0842 15.969L95.6879 12.1238V12.0619L97.1498 15.6192L96.1413 17.9412H98.1182L98.8183 19.6223L99.4814 21.2167H102.328L96.8661 8.65942H94.5591ZM126.48 8.65942H124.151L118.655 21.2941H121.4L123.676 15.969L125.271 12.2136L125.314 12.1269L126.788 15.678L125.78 18.0155H127.763L128.463 19.6966L129.126 21.291H132L126.48 8.65942Z" fill="#ADB6BC"/>
<path d="M45.54 18.5325C45.0379 19.0594 44.4561 19.5035 43.816 19.8483C43.1119 20.2082 42.3298 20.3869 41.5399 20.3684C40.8479 20.3687 40.1644 20.2154 39.5383 19.9195C38.9455 19.6568 38.4115 19.2767 37.9685 18.8019C37.5072 18.2989 37.1469 17.7113 36.9076 17.0712C36.6527 16.4054 36.5241 15.6977 36.5282 14.9845C36.525 14.2744 36.6537 13.5699 36.9076 12.9071C37.1451 12.2683 37.5021 11.6808 37.9593 11.1765C38.4031 10.6922 38.9403 10.3036 39.5383 10.0341C40.1607 9.74953 40.8375 9.60478 41.5214 9.60991C41.9539 9.60818 42.3853 9.65492 42.8075 9.74924C43.1703 9.8347 43.523 9.95925 43.8592 10.1207C44.1658 10.2688 44.4545 10.4516 44.7196 10.6656C44.987 10.8717 45.2434 11.0918 45.4876 11.3251L45.7035 11.5232L46.5146 10.6564L46.2987 10.4582C45.9903 10.1796 45.6819 9.92261 45.3735 9.68731C45.0479 9.44587 44.6986 9.2384 44.331 9.06812C43.925 8.88703 43.4997 8.75304 43.0635 8.66873C42.5565 8.56134 42.0395 8.50944 41.5214 8.51394C40.664 8.50403 39.8151 8.68484 39.0356 9.04335C38.3062 9.37946 37.6517 9.8596 37.1111 10.4551C36.5566 11.053 36.123 11.7533 35.8343 12.517C35.5332 13.3076 35.3816 14.1475 35.3871 14.9938C35.3831 15.8519 35.5378 16.7033 35.8436 17.5047C36.1238 18.2751 36.5548 18.9814 37.1111 19.582C37.6634 20.1647 38.322 20.6355 39.051 20.9691C39.8224 21.3105 40.6568 21.4846 41.4998 21.4799C42.0189 21.4835 42.5365 21.4253 43.0419 21.3065C43.4927 21.2014 43.9318 21.051 44.3526 20.8576C44.7457 20.6676 45.1187 20.4384 45.466 20.1734C45.793 19.9051 46.1021 19.6155 46.3912 19.3065L46.5979 19.0991L45.7343 18.3375L45.5277 18.5356M54.78 8.66255L48.8523 21.2725H50.0613L55.2056 10.2879L58.1139 16.4551L57.3799 18.0217H58.8541L60.3962 21.2694H61.5681L55.6682 8.65945H54.8047M70.6015 16.0217C70.967 15.9669 71.3257 15.8735 71.6717 15.743C72.1408 15.5765 72.5763 15.3269 72.9578 15.0062C73.3261 14.7002 73.6212 14.3151 73.8213 13.8793C74.0279 13.4158 74.1331 12.9133 74.1297 12.4056C74.132 11.9459 74.0472 11.4899 73.8799 11.0619C73.7163 10.6599 73.4788 10.2923 73.1798 9.97834C72.7376 9.54684 72.2042 9.22092 71.6193 9.02478C70.9417 8.80759 70.2333 8.70301 69.5221 8.71518H64.3408V21.2632H65.488V16.1548H69.2753L73.1582 21.2632H74.6355L70.6262 16M65.5096 15.031V9.8545H69.519C70.4353 9.79365 71.3458 10.0409 72.1066 10.5573C72.3913 10.7769 72.6187 11.0627 72.7691 11.39C72.9195 11.7174 72.9885 12.0765 72.9701 12.4365C72.9733 12.7958 72.8964 13.1512 72.745 13.4768C72.5862 13.7965 72.3562 14.0751 72.0726 14.291C71.7385 14.5406 71.3609 14.7254 70.9593 14.8359C70.4576 14.978 69.9384 15.0478 69.4172 15.0434H65.488" fill="#ADB6BC"/>
<path d="M29.8861 15C29.8836 18.975 28.3086 22.7862 25.5073 25.5957C22.7061 28.4051 18.9079 29.9827 14.9482 29.9814C10.9884 29.9802 7.19129 28.4003 4.39176 25.5891C1.59222 22.7779 0.0195313 18.9657 0.0195312 14.9907C0.0195313 11.0157 1.59222 7.20349 4.39176 4.39232C7.19129 1.58115 10.9884 0.00123213 14.9482 7.20365e-07C18.9079 -0.00123069 22.7061 1.57633 25.5073 4.38575C28.3086 7.19518 29.8836 11.0065 29.8861 14.9814V15Z" fill="#ADB6BC"/>
<path d="M15.019 7.65634C14.1873 7.65198 13.3564 7.70993 12.5332 7.82971C12.1488 7.8766 11.7735 7.98095 11.4199 8.13931H11.4877C11.7409 8.24325 12.0046 8.31904 12.2742 8.36532C14.0019 8.6386 15.7605 8.6532 17.4925 8.40866C17.8764 8.35945 18.2514 8.25518 18.6058 8.09906H18.538C18.2877 7.99615 18.0271 7.92039 17.7608 7.87306C16.8538 7.72101 15.9354 7.64849 15.0159 7.65634M15.0159 9.17956C14.15 9.1863 13.2848 9.12522 12.4284 8.99689C11.889 8.95825 11.3677 8.78592 10.911 8.49534C10.8122 8.39915 10.751 8.27068 10.7383 8.13312C10.7487 7.99495 10.8103 7.86571 10.911 7.77089C11.0024 7.68598 11.1064 7.61599 11.2194 7.56346C11.5174 7.44292 11.8276 7.35571 12.1446 7.3034C13.0876 7.13989 14.0437 7.06423 15.0005 7.07739C15.8634 7.07147 16.7254 7.13254 17.5788 7.26005C18.1176 7.30339 18.6355 7.4881 19.0808 7.79566C19.135 7.83959 19.1793 7.89462 19.2107 7.95708C19.2421 8.01954 19.2598 8.08799 19.2628 8.15788C19.2587 8.22753 19.2404 8.29561 19.2091 8.35791C19.1778 8.42021 19.1342 8.47541 19.0808 8.52012C18.9884 8.59955 18.8844 8.66428 18.7724 8.71207C18.4753 8.8373 18.1649 8.92768 17.8472 8.98141C16.9067 9.14039 15.9542 9.21602 15.0005 9.20742" fill="#0D233B"/>
<path d="M21.505 15.3095C21.1859 14.901 20.8973 14.4695 20.6414 14.0185H20.7093C20.7093 14.0185 22.3037 13.9318 22.02 13.3776C22.02 13.3776 21.7116 12.712 20.5365 12.712H20.3731C20.3207 12.712 20.2436 12.712 20.2189 13.1454C19.8591 12.2892 19.2932 11.536 18.572 10.9534C18.4006 10.8575 18.2137 10.7925 18.0199 10.7615C17.6837 10.6996 15.1393 10.6748 14.9358 10.6748C14.7292 10.6748 12.1848 10.6748 11.8517 10.7615C11.6575 10.7908 11.4703 10.8559 11.2996 10.9534C10.5784 11.536 10.0125 12.2892 9.65271 13.1454C9.65271 12.7398 9.54785 12.712 9.48925 12.712H9.33505C8.16308 12.712 7.85159 13.3776 7.85159 13.3776C7.56785 13.9318 9.16234 14.0185 9.16234 14.0185H9.23019C8.97432 14.4695 8.68569 14.901 8.36664 15.3095C8.19044 15.5137 8.03735 15.737 7.91019 15.9751C7.82331 16.2193 7.78252 16.4776 7.78991 16.7367C7.78991 17.1609 7.85159 19.0154 7.85159 19.0154V21.3435C7.84814 21.3718 7.85027 21.4005 7.85786 21.4279C7.86545 21.4553 7.87835 21.481 7.89582 21.5034C7.91329 21.5258 7.93499 21.5446 7.95969 21.5586C7.98438 21.5726 8.01157 21.5816 8.03973 21.585H9.89019C9.91857 21.5831 9.94628 21.5755 9.97173 21.5627C9.99718 21.55 10.0199 21.5323 10.0385 21.5107C10.0571 21.4892 10.0713 21.4641 10.0803 21.437C10.0892 21.4099 10.0928 21.3813 10.0907 21.3528V21.0432H19.7994V21.3281C19.796 21.3563 19.7981 21.385 19.8057 21.4124C19.8133 21.4398 19.8262 21.4655 19.8437 21.4879C19.8611 21.5103 19.8828 21.5291 19.9075 21.5431C19.9322 21.5571 19.9594 21.5661 19.9876 21.5695H21.838C21.8664 21.5676 21.8941 21.56 21.9196 21.5473C21.945 21.5345 21.9677 21.5168 21.9864 21.4953C22.005 21.4737 22.0192 21.4486 22.0281 21.4215C22.0371 21.3944 22.0406 21.3658 22.0385 21.3373V18.9968C22.0385 18.9968 22.0817 17.1392 22.1002 16.7181C22.1116 16.4579 22.0674 16.1982 21.9707 15.9565C21.842 15.7228 21.6856 15.5055 21.505 15.3095ZM10.359 13.5262C10.6937 12.7362 11.107 11.9821 11.5926 11.2754C11.5926 11.2754 12.6351 11.2228 14.026 11.2135V11.5603C14.026 11.6038 14.0432 11.6455 14.0739 11.6763C14.1045 11.7071 14.1461 11.7243 14.1894 11.7243H15.8024C15.8239 11.7256 15.8454 11.7226 15.8657 11.7155C15.886 11.7084 15.9047 11.6973 15.9208 11.6829C15.9368 11.6686 15.9499 11.6511 15.9592 11.6317C15.9685 11.6122 15.974 11.5911 15.9751 11.5695V11.3188L15.932 11.2135C17.3198 11.2135 18.3561 11.2754 18.3561 11.2754C18.8515 11.9786 19.2761 12.7294 19.6236 13.5169C19.7193 13.777 19.5034 13.777 19.5034 13.777H10.4392C10.4392 13.777 10.2233 13.7615 10.359 13.5107V13.5262ZM8.63496 17.3219C8.28028 17.2352 8.24636 17.0123 8.24636 17.0123C8.21006 16.6982 8.2481 16.38 8.35739 16.0835C8.40971 15.9627 8.50147 15.8635 8.61754 15.8021C8.7336 15.7408 8.86702 15.721 8.9958 15.746C9.36532 15.8624 9.71634 16.0314 10.0382 16.2476C10.655 16.5572 10.7198 17.6253 10.7198 17.6253C10.0195 17.5652 9.32339 17.4639 8.63496 17.3219ZM18.5288 17.6934C17.4493 17.7801 15.898 17.7894 14.9574 17.7894C14.0167 17.7894 12.4654 17.7894 11.386 17.6934C11.386 17.6934 11.0776 17.0339 11.5494 17.0185C11.6111 17.0185 12.999 16.9658 15.0006 16.9658C17.0022 16.9658 18.3468 17.0185 18.3931 17.0185C18.8064 17.0711 18.5041 17.7274 18.5041 17.7274L18.5288 17.6934ZM21.6684 17.0185C21.6684 17.0185 21.6252 17.2352 21.2798 17.3281C20.5874 17.4723 19.8871 17.5756 19.1826 17.6377C19.1826 17.6377 19.269 16.5726 19.8642 16.2599C20.1871 16.0454 20.5378 15.8767 20.9066 15.7584C21.0366 15.7345 21.1708 15.7547 21.288 15.8158C21.4053 15.8769 21.499 15.9754 21.5543 16.0959C21.6607 16.4038 21.6966 16.7319 21.6592 17.0556L21.6684 17.0185Z" fill="#0D233B"/>
</g>
<defs>
<clipPath id="clip0_38_254">
<rect width="132" height="30" fill="white"/>
</clipPath>
</defs>
</svg>
