<svg width="38" height="30" viewBox="0 0 38 30" fill="none" xmlns="http://www.w3.org/2000/svg">
<path d="M37.9398 0L37.9818 30H0.859741V0H37.9398ZM15.3861 18.624L14.1195 21.126H18.3676V18.624H15.3861ZM15.9203 8.72363L9.58435 21.1201H11.8578L18.1996 8.72363H15.9203ZM20.3177 8.72363V21.1201H22.5863V18.5703H25.5443L26.8402 21.1143H29.0961L22.8558 8.72363H20.3177ZM29.7621 19.3623C29.3961 19.3623 29.1078 19.6505 29.1078 20.0225C29.108 20.3942 29.4022 20.6816 29.7621 20.6816C30.1218 20.6815 30.4093 20.3942 30.4095 20.0225C30.4095 19.6565 30.122 19.3624 29.7621 19.3623ZM29.7562 19.4639C30.0501 19.4641 30.2896 19.7106 30.2836 20.0225C30.2833 20.3341 30.0499 20.5859 29.7562 20.5801C29.4624 20.5801 29.2281 20.3342 29.2279 20.0225C29.2279 19.7105 29.4682 19.4639 29.7562 19.4639ZM29.516 19.668V20.4004H29.6361V20.082H29.726C29.8159 20.0821 29.8642 20.1179 29.8822 20.2139C29.8942 20.3099 29.9121 20.3764 29.9301 20.4004H30.0502C30.0382 20.3764 30.0203 20.3337 30.0023 20.2197C29.9843 20.1121 29.942 20.0522 29.8763 20.04V20.0342C29.9542 20.0101 30.0199 19.9494 30.0199 19.8535C30.0198 19.7877 29.9954 19.734 29.9535 19.7041C29.9115 19.6742 29.8397 19.6504 29.726 19.6504C29.636 19.6504 29.576 19.662 29.516 19.668ZM29.7201 19.7344C29.8519 19.7344 29.8998 19.8002 29.8998 19.8662C29.8997 19.956 29.8159 19.9921 29.7201 19.9922H29.6361V19.7402C29.6541 19.7402 29.6842 19.7344 29.7201 19.7344ZM16.3217 16.7695H18.3558V12.7676L16.3217 16.7695ZM24.6136 16.7637H22.5795V12.7617L24.6136 16.7637Z" fill="#ADB6BC"/>
</svg>
