<svg width="82" height="30" viewBox="0 0 82 30" fill="none" xmlns="http://www.w3.org/2000/svg">
<path d="M55.4774 0C73.6469 0 85.1191 6.75684 81.0056 14.9896C76.8921 23.264 58.7434 30 40.574 30C23.9399 30 12.9195 24.3544 14.332 17.0512C14.5591 17.6672 14.906 18.1516 15.2531 18.5176L15.2697 18.5343C15.2856 18.5503 15.3019 18.5659 15.3179 18.5816C16.125 24.1617 25.5503 28.2745 39.0651 28.2745C55.4569 28.2745 71.89 22.2453 75.6107 14.8441C79.3521 7.44288 68.9962 1.41389 52.5838 1.41388V1.43458C47.4988 1.43459 42.3931 2.01675 37.6595 3.03545C36.9568 3.18097 36.2746 3.32648 35.5925 3.51358C30.9411 4.68313 26.7351 6.28082 23.3686 8.16491C23.1054 8.14406 22.8318 8.13329 22.5478 8.13304V8.12898C22.4052 8.12898 22.2638 8.13188 22.1235 8.1375C30.0118 3.31838 42.7446 2.47809e-05 55.4774 0Z" fill="#ADB6BC"/>
<path d="M74.0885 8.80526C75.4053 10.5565 75.6138 12.5801 74.5029 14.7174C74.3065 15.0895 74.0749 15.4594 73.8083 15.8253C73.1634 16.7276 72.3407 17.576 71.6379 18.1747C65.418 23.5156 51.9159 27.2577 38.9866 27.2577C27.3162 27.2577 19.1456 24.1642 17.1296 19.6698C17.7977 19.8827 18.5771 19.9812 19.5154 19.9813C20.7889 19.9813 21.9757 19.7579 23.0593 19.3165C23.4798 19.8464 24.011 20.3473 24.6455 20.8151L23.7426 23.6964H29.7288L29.8695 23.2577C33.1126 24.2321 37.229 24.7879 41.9983 24.7879C54.0617 24.7879 66.6956 21.2722 72.0638 16.3534C73.0973 15.4012 73.7919 14.4345 74.3975 13.2329C75.0414 11.6521 74.8948 10.1455 74.0885 8.80526Z" fill="#ADB6BC"/>
<path d="M44.6441 2.87749C43.5487 3.03965 42.4675 3.21835 41.4051 3.44495C35.4863 4.71019 30.206 6.82563 26.6419 9.34429C26.1047 8.88709 25.4283 8.55858 24.6163 8.36002C28.372 6.48534 33.1761 4.97796 38.3935 3.83578C40.4377 3.39713 42.5193 3.08955 44.6441 2.87749Z" fill="#ADB6BC"/>
<path d="M74.0885 8.80526C74.0847 8.80022 74.081 8.79506 74.0772 8.79003V8.78597C74.081 8.79233 74.0846 8.79889 74.0885 8.80526Z" fill="#ADB6BC"/>
<path fill-rule="evenodd" clip-rule="evenodd" d="M9.01029 15.3015C8.47286 15.7173 7.79073 15.946 6.98457 15.946C6.17842 15.946 5.57897 15.6757 5.28959 15.156C4.97953 14.6154 5.06221 13.6383 5.49629 12.2246C5.86836 11.0604 6.32312 10.208 6.88122 9.68822C7.60469 8.96057 8.47286 8.58635 9.42371 8.58635C10.3746 8.58635 10.2092 8.66951 10.4986 8.83583C11.0153 9.12689 11.222 9.58427 11.2841 10.1664H15.2942C15.2942 8.8982 15.0668 7.4637 14.0126 6.61131C13.2271 5.94604 11.9869 5.6134 10.2712 5.6134C8.55554 5.6134 6.17842 6.19551 4.60746 7.33896C3.05716 8.4824 1.92028 10.104 1.27949 12.2454C0.783393 13.8462 0.70071 15.1768 1.07278 16.1747C1.44485 17.1934 2.02363 17.921 2.85045 18.3368C3.65661 18.7526 4.81416 18.9605 6.30244 18.9605C7.79073 18.9605 8.59688 18.7942 9.48572 18.4616C10.3746 18.1289 11.2014 17.63 11.9455 16.9855V16.9439C12.7517 16.2162 13.7232 14.9896 14.1573 13.9709H10.1678C9.81645 14.5115 9.44438 14.9896 9.01029 15.3015Z" fill="#ADB6BC"/>
<path fill-rule="evenodd" clip-rule="evenodd" d="M26.539 10.7901C25.8589 9.71109 24.5401 9.17055 22.5433 9.16847C20.8091 9.16847 19.2836 9.62585 17.9813 10.5406C16.6791 11.4762 15.7903 12.6612 15.3562 14.0749C14.8601 15.6133 15.0875 16.8399 15.997 17.7963C16.7411 18.5447 17.7126 18.9397 19.511 18.9397C21.3093 18.9397 22.8389 18.4616 24.1412 17.5468C25.4228 16.632 26.2909 15.447 26.7457 14.0125C27.1591 12.7443 27.0764 11.6633 26.539 10.7901ZM22.9423 14.0125C22.6736 14.8857 22.3015 15.5094 21.8261 15.9044V15.9252C21.33 16.3202 20.8132 16.5281 20.2758 16.5281C19.7383 16.5281 19.3456 16.3202 19.1182 15.9252C18.8908 15.5094 18.8908 14.9065 19.1596 14.0749C19.3869 13.2433 19.759 12.6404 20.2551 12.2246C20.7305 11.8296 21.3093 11.6425 21.8261 11.6425C22.3428 11.6425 22.7149 11.8296 22.9423 12.2246C23.211 12.5988 23.1903 13.2225 22.9423 14.0125Z" fill="#ADB6BC"/>
<path fill-rule="evenodd" clip-rule="evenodd" d="M50.8476 10.104H50.7856C50.4549 9.70901 49.9381 9.45953 49.2973 9.35558C48.6565 9.21005 47.747 9.16847 46.6101 9.16847C45.9073 9.16847 45.2252 9.21005 44.5844 9.314C43.9643 9.39716 43.4269 9.54269 43.0341 9.7298C42.476 9.95849 42.0006 10.2495 41.6492 10.603C41.2771 10.9356 40.9464 11.4138 40.6157 12.0167L44.1297 12.3701C44.419 11.9543 44.6878 11.6841 44.9771 11.5385C45.3492 11.3722 45.9693 11.2683 46.4654 11.2683C46.9615 11.2683 47.2716 11.3514 47.4163 11.5385C47.5403 11.7256 47.5403 12.0375 47.4163 12.4741C46.8995 12.6196 46.4034 12.7651 45.9487 12.8899C45.4732 12.973 44.5017 13.1809 42.9928 13.4512C41.7319 13.6799 40.8017 14.0125 40.2229 14.4699C39.6441 14.9273 39.2307 15.5094 39.024 16.2162C38.7966 16.9855 38.9 17.63 39.3547 18.1289C39.8095 18.6487 40.9257 18.9189 41.8145 18.9189C42.7034 18.9189 43.5302 18.7942 44.2744 18.5239C44.8118 18.3368 45.4112 18.0042 46.052 17.5676C46.0107 17.8171 46.0107 18.0042 46.0107 18.1497C46.0107 18.2952 46.0314 18.4616 46.114 18.711H49.6694C49.5867 18.316 49.5867 18.0042 49.5867 17.7547C49.6074 17.526 49.69 17.1726 49.8141 16.736L51.0957 12.5988C51.261 12.1622 51.3024 11.7048 51.261 11.2059C51.2403 10.7485 51.0956 10.3743 50.8476 10.104ZM46.7135 14.8441C46.5481 15.3015 46.3828 15.6757 46.1347 15.946L46.176 15.9252C45.928 16.2162 45.5973 16.4449 45.1839 16.632C44.7704 16.8192 44.3157 16.9231 43.9023 16.9231C43.4889 16.9231 43.2201 16.8399 43.0755 16.6528C42.9101 16.4657 42.8688 16.237 42.9721 15.9668C43.0341 15.7381 43.2201 15.5094 43.4889 15.3223C43.7369 15.1352 44.295 14.9481 45.1218 14.761C45.742 14.6154 46.3207 14.4699 46.8995 14.2828L46.7135 14.8441Z" fill="#ADB6BC"/>
<path fill-rule="evenodd" clip-rule="evenodd" d="M56.9041 10.894L57.3795 9.37637H53.8242L50.9096 18.711H54.7337L55.7052 15.5718C56.1806 14.0541 56.6912 13.0499 57.2555 12.4949C57.8198 11.9398 58.9794 11.7319 59.8972 12.235L60.8625 9.28697C60.8625 9.28697 60.3912 9.19966 60.1659 9.19966C58.258 9.19966 57.4622 10.2495 56.9041 10.894Z" fill="#ADB6BC"/>
<path fill-rule="evenodd" clip-rule="evenodd" d="M66.6193 12.0167H68.707L69.5132 9.39716H67.4461L67.4254 9.37637L68.521 5.8213L64.1388 7.65081L63.6014 9.37637H61.741L60.9349 11.9959H62.7952L61.7824 15.2807C61.4516 16.3202 61.3069 17.0686 61.3896 17.5468C61.4516 18.0042 61.679 18.3576 62.0511 18.5863C62.4231 18.815 63.0846 18.9397 64.0561 18.9397C65.0276 18.9397 65.7718 18.8358 66.764 18.6487L67.2601 16.1747C66.702 16.341 66.2886 16.4241 66.0198 16.4241C65.7511 16.4241 65.5237 16.2994 65.4617 16.1123C65.4204 15.9876 65.4617 15.7173 65.5858 15.3223L66.6193 12.0167Z" fill="#ADB6BC"/>
<path fill-rule="evenodd" clip-rule="evenodd" d="M38.776 10.5822C38.3419 9.64664 37.4531 9.16847 36.1301 9.16847C34.2305 9.16847 33.1329 10.1664 32.4508 10.7693L32.8642 9.39716H29.3088L25.152 22.657H28.976L30.5284 17.8171C30.7971 18.1913 31.1485 18.4616 31.5619 18.6487C31.9753 18.8358 32.4921 18.9397 33.0709 18.9397C34.2698 18.9397 35.4067 18.5239 36.4402 17.7131C37.4944 16.8815 38.2592 15.6965 38.7346 14.158C39.4498 11.7215 38.776 10.5822 38.776 10.5822ZM34.9933 13.9917C34.7452 14.8233 34.4145 15.3847 34.0011 15.7381C33.5876 16.0915 33.1742 16.2578 32.7402 16.2578C32.3061 16.2578 31.872 16.0707 31.6446 15.7173C31.4172 15.3639 31.4379 14.8025 31.6446 14.0749C31.8927 13.2849 32.2234 12.682 32.6781 12.3493C33.1122 11.9959 33.567 11.8088 34.0631 11.8088C34.5592 11.8088 34.8279 11.9751 35.0139 12.3285C35.2206 12.682 35.2 13.2433 34.9726 13.9917H34.9933Z" fill="#ADB6BC"/>
</svg>
