<svg width="59" height="30" viewBox="0 0 59 30" fill="none" xmlns="http://www.w3.org/2000/svg">
<path d="M35.592 16.6012H31.1781V12.7428H27.2399V25.5856H31.1781V20.5597H35.592V25.5856H39.5302V12.7205H35.592V16.6012Z" fill="#ADB6BC"/>
<path d="M28.7665 6.04893L32.1848 7.29429L28.7776 0L21.5317 3.41364L24.6513 4.5478L24.6292 4.60341C24.3858 5.2261 24.1757 5.69312 24.0872 5.79319C23.9655 5.93774 23.7995 6.13788 22.8482 6.2046C22.6159 6.21574 22.4278 6.22684 22.2397 6.22684H21.8194C21.4986 6.22684 21.1335 6.24906 20.4366 6.34914C19.0869 6.54929 18.0582 7.00518 17.1289 7.81689C16.3435 8.49517 15.5691 9.3736 15.1598 11.1972C14.8722 12.487 15.0602 13.7657 15.724 15C16.1444 15.7672 17.0847 16.9681 19.2418 18.2913C20.2153 18.8806 20.879 19.3477 21.1999 19.8035C21.41 20.1149 21.4985 20.4596 21.4432 20.7376C21.4211 20.8599 21.3547 21.0156 21.1999 21.1268C20.9565 21.2935 20.4698 21.427 19.9498 21.5604L19.9166 21.5715C19.1312 21.7939 18.1577 22.0608 17.3723 22.5723C16.1775 23.3506 15.8235 23.9622 14.7837 28.599L14.7173 28.8769L18.6334 30L18.7108 29.6998C19.0759 28.1987 19.3746 27.3202 19.5848 27.0867C19.8171 26.8199 19.9498 26.7087 20.5472 26.5197C20.6689 26.4752 20.7905 26.4418 20.9122 26.4085L21.0671 26.364C21.8193 26.1416 22.5384 25.9303 23.6004 25.3966C25.0827 24.6738 26.1337 22.8725 26.3328 20.7153C26.554 18.4248 25.7244 17.1794 24.8062 16.1675C24.1756 15.4781 21.4101 13.6879 21.0118 13.4544C20.5251 13.1653 19.9498 12.6761 19.9941 11.9644C20.0273 11.4085 20.6246 11.1638 20.7795 11.1305C20.9012 11.1082 21.1003 11.086 21.4322 11.0526H21.4654C21.9189 11.0082 22.5937 10.9415 23.5562 10.808C25.4036 10.53 26.3992 9.64048 26.7421 9.26243C27.9147 7.9837 28.501 6.73834 28.7444 6.10454L28.7665 6.04893ZM40.7803 12.7317H44.7185V25.5967H40.7803V12.7317ZM42.7604 7.52781C41.4661 7.52781 40.4594 8.53966 40.4594 9.84062C40.4594 11.1193 41.4883 12.1534 42.7604 12.1534C44.0326 12.1534 45.0614 11.1193 45.0614 9.84062C45.0614 8.5619 44.0326 7.52781 42.7604 7.52781ZM52.451 13.0986C51.5882 13.0986 50.7696 13.2654 50.0063 13.6101L49.9288 13.6434V12.7428H45.9021V28.321H49.9288V25.0964L50.0063 25.1298C50.7585 25.4633 51.5882 25.6412 52.451 25.6412C55.9025 25.6412 58.7013 22.8281 58.7013 19.3588C58.7013 15.9007 55.8914 13.0986 52.451 13.0986ZM52.451 21.894C51.0793 21.894 49.9288 20.7376 49.9288 19.3588C49.9288 18.0133 51.1125 16.8236 52.451 16.8236C53.7896 16.8236 54.9733 18.0022 54.9733 19.3588C54.9733 20.7042 53.7896 21.894 52.451 21.894ZM10.049 19.0141C10.049 20.4707 8.81002 21.6938 7.34979 21.6938C5.87849 21.6938 4.63951 20.4707 4.63951 19.0141V12.7539H0.701294V19.0141C0.701294 22.6501 3.67707 25.5967 7.33871 25.5967C11.0004 25.5967 13.9761 22.639 13.9761 19.0141V12.7539H10.049V19.0141Z" fill="#ADB6BC"/>
</svg>
