<svg width="109" height="14" viewBox="0 0 109 14" fill="none" xmlns="http://www.w3.org/2000/svg">
<path d="M0.561035 0.034663C0.874955 1.25557 1.93686 2.49959 3.39794 2.81155H7.80444L8.02922 2.90014V13.9499H10.7809V2.90014L11.0328 2.81155H15.4432C16.9159 2.43411 17.9584 1.25172 18.2646 0.034663V0.00770289H0.561035V0.034663Z" fill="#ADB6BC"/>
<path d="M27.7945 13.9807H38.2624C39.7196 13.6919 40.8009 12.4171 41.1032 11.1846H24.9499C25.2522 12.4209 26.349 13.6957 27.7907 13.9807" fill="#ADB6BC"/>
<path d="M27.7945 8.31527H38.2624C39.7196 8.03026 40.8009 6.75543 41.1032 5.51912H24.9499C25.2522 6.75543 26.349 8.03026 27.7907 8.31527" fill="#ADB6BC"/>
<path d="M27.7945 2.8H38.2624C39.7196 2.51114 40.8009 1.23631 41.1032 0H24.9499C25.2522 1.23631 26.349 2.51114 27.7907 2.8" fill="#ADB6BC"/>
<path d="M51.6679 2.77304H61.3374C62.7946 2.35323 64.0193 1.24787 64.3177 0.0231087H48.955V8.2729H61.5273V11.1692L51.6641 11.1769C50.1177 11.6044 48.8078 12.6366 48.1528 14L48.9512 13.9846H64.2247V5.53067H51.6602V2.77304" fill="#ADB6BC"/>
<path d="M84.583 13.9846C85.9549 13.4069 86.6952 12.4055 86.9781 11.2347H74.7623L74.7701 0.0192572L72.0301 0.0269601V13.9846H84.5791" fill="#ADB6BC"/>
<path d="M95.2485 2.8077H105.72C107.174 2.51884 108.255 1.24402 108.561 0.0115543H92.4077C92.71 1.24402 93.8068 2.5227 95.2485 2.8077Z" fill="#ADB6BC"/>
<path d="M92.8302 5.53838V13.9769H95.5547V8.35763H105.468V13.9769H108.189V5.55378L92.834 5.53838" fill="#ADB6BC"/>
</svg>
